<?xml version="1.0" encoding="UTF-8"?><!DOCTYPE svg PUBLIC "-//W3C//DTD SVG 1.1//EN" "http://www.w3.org/Graphics/SVG/1.1/DTD/svg11.dtd"><svg xmlns="http://www.w3.org/2000/svg" xmlns:xlink="http://www.w3.org/1999/xlink"><defs>
<clipPath id="clip0_1:202">
<rect width="50" height="50" fill="white"/>
</clipPath>

<filter id="filter0_d_3:29" x="0" y="-2.28882e-05" width="130" height="130" filterUnits="userSpaceOnUse" color-interpolation-filters="sRGB">
<feFlood flood-opacity="0" result="BackgroundImageFix"/>
<feColorMatrix in="SourceAlpha" type="matrix" values="0 0 0 0 0 0 0 0 0 0 0 0 0 0 0 0 0 0 127 0" result="hardAlpha"/>
<feOffset/>
<feGaussianBlur stdDeviation="7.5"/>
<feColorMatrix type="matrix" values="0 0 0 0 0 0 0 0 0 0.577255 0 0 0 0 0.901961 0 0 0 0.6 0"/>
<feBlend mode="normal" in2="BackgroundImageFix" result="effect1_dropShadow_3:29"/>
<feBlend mode="normal" in="SourceGraphic" in2="effect1_dropShadow_3:29" result="shape"/>
</filter>
<linearGradient id="paint0_linear_3:29" x1="65" y1="15" x2="65" y2="115" gradientUnits="userSpaceOnUse">
<stop stop-color="#0093E6"/>
<stop offset="1" stop-color="#0093E6" stop-opacity="0"/>
</linearGradient>

<filter id="filter0_d_3:29" x="0" y="-2.28882e-05" width="130" height="130" filterUnits="userSpaceOnUse" color-interpolation-filters="sRGB">
<feFlood flood-opacity="0" result="BackgroundImageFix"/>
<feColorMatrix in="SourceAlpha" type="matrix" values="0 0 0 0 0 0 0 0 0 0 0 0 0 0 0 0 0 0 127 0" result="hardAlpha"/>
<feOffset/>
<feGaussianBlur stdDeviation="7.5"/>
<feColorMatrix type="matrix" values="0 0 0 0 0 0 0 0 0 0.577255 0 0 0 0 0.901961 0 0 0 0.6 0"/>
<feBlend mode="normal" in2="BackgroundImageFix" result="effect1_dropShadow_3:29"/>
<feBlend mode="normal" in="SourceGraphic" in2="effect1_dropShadow_3:29" result="shape"/>
</filter>
<linearGradient id="paint0_linear_3:29" x1="65" y1="15" x2="65" y2="115" gradientUnits="userSpaceOnUse">
<stop stop-color="#0093E6"/>
<stop offset="1" stop-color="#0093E6" stop-opacity="0"/>
</linearGradient>

<clipPath id="clip0_3:20">
<rect width="30" height="30"/>
</clipPath>

<clipPath id="clip0_3:18">
<rect width="30" height="30"/>
</clipPath>

<clipPath id="clip0_3:26">
<rect width="30" height="29.9999"/>
</clipPath>
</defs><symbol id="arrow-before"><path d="M.94 10.94a1.5 1.5 0 0 0 0 2.12l9.545 9.547a1.5 1.5 0 1 0 2.122-2.122L4.12 12l8.486-8.485a1.5 1.5 0 1 0-2.122-2.122L.94 10.94ZM32 10.5H2v3h30v-3Z" fill="#0093E6"/></symbol><symbol id="arrow-next"><path d="M31.06 10.94a1.5 1.5 0 0 1 0 2.12l-9.545 9.547a1.5 1.5 0 1 1-2.122-2.122L27.88 12l-8.486-8.485a1.5 1.5 0 1 1 2.122-2.122l9.546 9.546ZM0 10.5h30v3H0v-3Z" fill="#0093E6"/></symbol><symbol id="chat" viewBox="0 0 50 50">
<g clip-path="url(#clip0_1:202)">
<path d="M36.3565 4.95679H2.81553C1.26299 4.95679 0 6.21978 0 7.77222V27.8949C0 29.4474 1.26299 30.7105 2.81553 30.7105H4.99044V38.2017C4.99044 38.6786 5.27774 39.1088 5.71857 39.2914C5.86446 39.352 6.01779 39.3813 6.16974 39.3813C6.47677 39.3813 6.77833 39.2613 7.00402 39.0358L15.3293 30.7105H16.9996C17.6511 30.7105 18.1791 30.1825 18.1791 29.5311C18.1791 28.8795 17.6509 28.3515 16.9996 28.3515C16.9996 28.3515 14.7838 28.353 14.7607 28.3554C14.4861 28.374 14.2165 28.4871 14.0066 28.697L7.34943 35.3541C7.34943 35.3541 7.34738 29.4564 7.34357 29.4259C7.29035 28.8237 6.78527 28.3515 6.16935 28.3515H2.81553C2.56377 28.3515 2.35909 28.1467 2.35909 27.895V7.77222C2.35909 7.52046 2.56387 7.31578 2.81553 7.31578H36.3565C36.6083 7.31578 36.813 7.52056 36.813 7.77222V15.4925C36.813 16.1439 37.3412 16.6719 37.9925 16.6719C38.6437 16.6719 39.172 16.1439 39.172 15.4925V7.77222C39.172 6.21978 37.909 4.95679 36.3565 4.95679Z"/>
<path d="M47.1847 19.3841H23.7066C22.1542 19.3841 20.8911 20.6471 20.8911 22.1996V35.9272C20.8911 37.4796 22.1541 38.7427 23.7066 38.7427H38.4053L44.3604 44.6978C44.5861 44.9235 44.8877 45.0433 45.1947 45.0433C45.3466 45.0433 45.4999 45.0139 45.6458 44.9535C46.0865 44.7709 46.374 44.3409 46.374 43.8637V38.7426H47.1846C48.737 38.7426 50.0001 37.4796 50.0001 35.9271V22.1995C50.0002 20.6471 48.7372 19.3841 47.1847 19.3841ZM47.6412 35.9272C47.6412 36.1789 47.4365 36.3836 47.1848 36.3836H45.195C44.5742 36.3836 44.0666 36.8633 44.02 37.4722C44.017 37.498 44.0151 41.0162 44.0151 41.0162L39.7324 36.7334C39.728 36.729 39.7233 36.7248 39.7188 36.7203C39.702 36.7039 39.6861 36.6896 39.671 36.6768C39.4634 36.4948 39.1922 36.3835 38.8946 36.3835H23.7066C23.4549 36.3835 23.2502 36.1788 23.2502 35.9271V22.1995C23.2502 21.9478 23.455 21.7431 23.7066 21.7431H47.1848C47.4365 21.7431 47.6412 21.9479 47.6412 22.1995V35.9272Z"/>
<path d="M35.446 27.884C34.7949 27.884 34.2665 28.4125 34.2665 29.0635C34.2665 29.7146 34.7949 30.243 35.446 30.243C36.0972 30.243 36.6255 29.7146 36.6255 29.0635C36.6255 28.4125 36.0971 27.884 35.446 27.884Z"/>
<path d="M30.3193 12.7549H8.85232C8.20095 12.7549 7.67282 13.283 7.67282 13.9344C7.67282 14.5859 8.20105 15.1139 8.85232 15.1139H30.3193C30.9707 15.1139 31.4988 14.5859 31.4988 13.9344C31.4988 13.283 30.9707 12.7549 30.3193 12.7549Z"/>
<path d="M16.9993 20.5532H8.85232C8.20095 20.5532 7.67282 21.0812 7.67282 21.7327C7.67282 22.3841 8.20105 22.9121 8.85232 22.9121H16.9993C17.6508 22.9121 18.1788 22.3841 18.1788 21.7327C18.1788 21.0812 17.6507 20.5532 16.9993 20.5532Z"/>
<path d="M29.9648 27.884C29.3138 27.884 28.7853 28.4125 28.7853 29.0635C28.7853 29.7146 29.3138 30.243 29.9648 30.243C30.616 30.243 31.1443 29.7146 31.1443 29.0635C31.1443 28.4125 30.616 27.884 29.9648 27.884Z"/>
<path d="M40.9258 27.884C40.2747 27.884 39.7463 28.4125 39.7463 29.0635C39.7463 29.7146 40.2747 30.243 40.9258 30.243C41.577 30.243 42.1053 29.7146 42.1053 29.0635C42.1053 28.4125 41.5769 27.884 40.9258 27.884Z"/>
</g>

</symbol><symbol id="Ellipse 4" viewBox="0 0 130 130">
<g filter="url(#filter0_d_3:29)">
<path d="M65 112.5C55.6054 112.5 46.4217 109.714 38.6104 104.495C30.7991 99.2754 24.7109 91.857 21.1157 83.1775C17.5206 74.498 16.5799 64.9473 18.4127 55.7332C20.2455 46.5191 24.7694 38.0554 31.4124 31.4124C38.0554 24.7694 46.5191 20.2455 55.7332 18.4127C64.9473 16.5799 74.498 17.5206 83.1775 21.1157C91.857 24.7109 99.2754 30.7991 104.495 38.6104C109.714 46.4217 112.5 55.6054 112.5 65" stroke="url(#paint0_linear_3:29)" stroke-width="5" stroke-linecap="round" stroke-linejoin="round"/>
</g>

</symbol><symbol id="ellipse" viewBox="0 0 130 130">
<g filter="url(#filter0_d_3:29)">
<path d="M65 112.5C55.6054 112.5 46.4217 109.714 38.6104 104.495C30.7991 99.2754 24.7109 91.857 21.1157 83.1775C17.5206 74.498 16.5799 64.9473 18.4127 55.7332C20.2455 46.5191 24.7694 38.0554 31.4124 31.4124C38.0554 24.7694 46.5191 20.2455 55.7332 18.4127C64.9473 16.5799 74.498 17.5206 83.1775 21.1157C91.857 24.7109 99.2754 30.7991 104.495 38.6104C109.714 46.4217 112.5 55.6054 112.5 65" stroke="url(#paint0_linear_3:29)" stroke-width="5" stroke-linecap="round" stroke-linejoin="round"/>
</g>

</symbol><symbol id="facebook" viewBox="0 0 30 30">
<g clip-path="url(#clip0_3:20)">
<path d="M17.0255 29.9414H12.2118C11.4078 29.9414 10.7538 29.2886 10.7538 28.4862V17.65H7.94538C7.14135 17.65 6.4873 16.997 6.4873 16.1948V11.5514C6.4873 10.749 7.14135 10.0962 7.94538 10.0962H10.7538V7.771C10.7538 5.46547 11.4791 3.50395 12.8512 2.09885C14.2295 0.687332 16.1556 -0.0585938 18.4214 -0.0585938L22.0925 -0.0526429C22.8952 -0.0512695 23.5481 0.601501 23.5481 1.40259V5.71381C23.5481 6.51627 22.8942 7.16904 22.0904 7.16904L19.6187 7.16995C18.8649 7.16995 18.673 7.32079 18.6319 7.36702C18.5643 7.4437 18.4838 7.66045 18.4838 8.25897V10.096H21.9047C22.1622 10.096 22.4117 10.1594 22.6262 10.2789C23.0887 10.5368 23.3763 11.0246 23.3763 11.5517L23.3745 16.195C23.3745 16.997 22.7204 17.6498 21.9164 17.6498H18.4838V28.4862C18.4838 29.2886 17.8295 29.9414 17.0255 29.9414ZM12.5159 28.1827H16.7214V16.8626C16.7214 16.3268 17.1582 15.891 17.6949 15.891H21.6123L21.6139 11.8549H17.6946C17.158 11.8549 16.7214 11.4191 16.7214 10.8833V8.25897C16.7214 7.57187 16.7913 6.79047 17.311 6.20316C17.9389 5.49316 18.9284 5.41122 19.6183 5.41122L21.7859 5.41031V1.70563L18.42 1.70013C14.7787 1.70013 12.5159 4.02649 12.5159 7.771V10.8833C12.5159 11.4189 12.0793 11.8549 11.5426 11.8549H8.24947V15.891H11.5426C12.0793 15.891 12.5159 16.3268 12.5159 16.8626V28.1827ZM22.0891 1.70609H22.0893H22.0891Z"/>
</g>

</symbol><symbol id="id-card" viewBox="0 0 50 50">
<path d="M46.8152 8.70416H3.18477C1.42871 8.70416 0 10.1329 0 11.8889V38.1112C0 39.8672 1.42871 41.296 3.18477 41.296H46.8152C48.5713 41.296 50 39.8672 50 38.1112V11.8889C50 10.1329 48.5713 8.70416 46.8152 8.70416ZM47.8769 38.1111C47.8769 38.6964 47.4006 39.1727 46.8152 39.1727H3.18477C2.59941 39.1727 2.12314 38.6964 2.12314 38.1111V11.8888C2.12314 11.3035 2.59941 10.8272 3.18477 10.8272H46.8152C47.4006 10.8272 47.8769 11.3035 47.8769 11.8888V38.1111Z"/>
<path d="M41.2212 18.0181H29.8282C29.2418 18.0181 28.7665 18.4935 28.7665 19.0797C28.7665 19.6661 29.2418 20.1414 29.8282 20.1414H41.2212C41.8076 20.1414 42.2828 19.6661 42.2828 19.0797C42.2828 18.4935 41.8076 18.0181 41.2212 18.0181Z"/>
<path d="M41.2212 23.9385H29.8282C29.2418 23.9385 28.7665 24.4138 28.7665 25.0001C28.7665 25.5863 29.2418 26.0617 29.8282 26.0617H41.2212C41.8076 26.0617 42.2828 25.5863 42.2828 25.0001C42.2828 24.4138 41.8076 23.9385 41.2212 23.9385Z"/>
<path d="M41.2212 29.8586H29.8282C29.2418 29.8586 28.7665 30.334 28.7665 30.9203C28.7665 31.5065 29.2418 31.9819 29.8282 31.9819H41.2212C41.8076 31.9819 42.2828 31.5065 42.2828 30.9203C42.2828 30.334 41.8076 29.8586 41.2212 29.8586Z"/>
<path d="M19.6041 28.344C19.5827 28.3426 17.6397 28.4235 17.1149 26.3216C17.824 25.7634 18.419 24.988 18.8442 24.0618C18.8756 24.0649 18.9071 24.0688 18.9383 24.0688C19.2278 24.0687 19.508 23.9369 19.6922 23.7003C20.5837 22.5552 21.0473 21.0685 20.9977 19.5139C20.8946 16.2909 18.6523 13.7501 15.8891 13.7202C15.8135 13.7172 15.7462 13.7191 15.6918 13.7211C15.6906 13.7211 15.6893 13.7212 15.6879 13.7212C15.0175 13.4306 14.3113 13.2945 13.5834 13.3184C12.0276 13.3681 10.6 14.1388 9.5641 15.4886C8.57142 16.7819 8.0557 18.4647 8.11205 20.2276C8.12162 20.5258 8.14525 20.8008 8.18314 21.0614C8.28597 21.812 8.49301 22.5315 8.79847 23.1998C8.94525 23.521 9.25736 23.7351 9.6101 23.7562C9.70609 23.7624 9.80033 23.7525 9.89095 23.7307C10.3233 24.8023 10.9765 25.694 11.7665 26.3166C11.2522 28.415 9.29779 28.3428 9.2764 28.3442C7.18763 28.4126 5.50922 30.1318 5.50922 32.2368V36.1053C5.50922 36.6331 5.93695 37.0608 6.46468 37.0608H22.4158C22.9435 37.0608 23.3712 36.6331 23.3712 36.1053V32.2368C23.3713 30.1316 21.6928 28.4124 19.6041 28.344ZM10.0881 20.8816C10.0837 20.8524 10.0795 20.823 10.0754 20.7936C10.0469 20.5971 10.0294 20.3918 10.0222 20.1661C9.97982 18.8436 10.3555 17.5957 11.0801 16.6519C11.761 15.7647 12.672 15.2591 13.6448 15.228C13.6769 15.2269 14.4405 15.1665 15.0828 15.5461C15.2172 15.6256 15.382 15.6493 15.5373 15.6455C15.557 15.645 15.8433 15.6305 15.8578 15.6306C17.5697 15.6419 19.0189 17.4112 19.088 19.5748C19.096 19.8226 19.0861 20.0675 19.0591 20.3071C18.4268 19.2217 17.4875 18.3813 16.3698 17.9113C16.1295 17.8104 15.8584 17.8119 15.6194 17.9155C15.3802 18.0192 15.1939 18.2162 15.1035 18.4606C15.0297 18.66 14.9401 18.8544 14.8372 19.0384C14.5864 19.4871 14.0731 19.7516 13.4978 19.7336C13.3833 19.7297 13.2677 19.7295 13.1539 19.7331C12.5941 19.751 12.0481 19.8578 11.5273 20.0518C11.0071 20.2483 10.5236 20.5272 10.0881 20.8816ZM11.4197 22.2684C11.6618 22.0895 11.9278 21.9572 12.1986 21.8412C12.6923 21.6295 13.3595 21.641 13.4317 21.6435C14.6624 21.6853 15.786 21.1094 16.4112 20.1284C16.8987 20.5019 17.3013 21.005 17.5822 21.6012C17.2863 23.7455 15.9518 25.3767 14.4375 25.3767C13.0866 25.3767 11.8741 24.0989 11.4197 22.2684ZM13.5192 27.18C13.8182 27.2505 14.1251 27.2876 14.4375 27.2876C14.7529 27.2876 15.0617 27.2502 15.3617 27.1802C15.6696 28.1634 16.3163 28.9978 17.1638 29.5478C16.7562 30.6695 15.6778 31.4559 14.4404 31.4559C13.203 31.4559 12.1245 30.6695 11.7168 29.5477C12.5645 28.9976 13.2113 28.1633 13.5192 27.18ZM7.42025 35.1498V32.2367C7.42025 31.1421 8.31078 30.2516 9.40541 30.2516C9.42728 30.2516 9.77582 30.2316 9.92513 30.2115C10.6054 32.0672 12.3916 33.3669 14.4403 33.3669C16.4889 33.3669 18.2751 32.0672 18.9554 30.2115C19.1049 30.2316 19.4532 30.2516 19.475 30.2516C20.5698 30.2516 21.4602 31.1422 21.4602 32.2367V35.1498H7.42025Z"/>
</symbol><symbol id="instagram" viewBox="0 0 30 30">
<path d="M21.8792 0H8.12071C3.64288 0 0 3.64288 0 8.12071V21.8795C0 26.3571 3.64288 29.9999 8.12071 29.9999H21.8795C26.3571 29.9999 29.9999 26.3571 29.9999 21.8795V8.12071C29.9999 3.64288 26.3571 0 21.8792 0V0ZM28.2412 21.8795C28.2412 25.3873 25.3873 28.2412 21.8792 28.2412H8.12071C4.61265 28.2412 1.75872 25.3873 1.75872 21.8795V8.12071C1.75872 4.61265 4.61265 1.75872 8.12071 1.75872H21.8795C25.3873 1.75872 28.2412 4.61265 28.2412 8.12071V21.8795Z"/>
<path d="M14.9999 6.79712C10.4768 6.79712 6.79706 10.4768 6.79706 15C6.79706 19.5232 10.4768 23.2029 14.9999 23.2029C19.5231 23.2029 23.2028 19.5232 23.2028 15C23.2028 10.4768 19.5231 6.79712 14.9999 6.79712ZM14.9999 21.4442C11.4468 21.4442 8.55578 18.5534 8.55578 15C8.55578 11.4468 11.4468 8.55584 14.9999 8.55584C18.5533 8.55584 21.4441 11.4468 21.4441 15C21.4441 18.5534 18.5533 21.4442 14.9999 21.4442Z"/>
<path d="M23.399 3.88379C22.0623 3.88379 20.9752 4.9712 20.9752 6.30764C20.9752 7.64431 22.0623 8.73173 23.399 8.73173C24.7357 8.73173 25.8231 7.64431 25.8231 6.30764C25.8231 4.97098 24.7357 3.88379 23.399 3.88379ZM23.399 6.97277C23.0323 6.97277 22.7339 6.67431 22.7339 6.30764C22.7339 5.94075 23.0323 5.64251 23.399 5.64251C23.7659 5.64251 24.0644 5.94075 24.0644 6.30764C24.0644 6.67431 23.7659 6.97277 23.399 6.97277Z"/>
</symbol><symbol id="laptop" viewBox="0 0 50 50">
<path d="M41.2938 12.9309H8.70666C8.11242 12.9309 7.63058 13.4126 7.63058 14.007V30.2594C7.63058 30.8537 8.11242 31.3354 8.70666 31.3354C9.3009 31.3354 9.78274 30.8537 9.78274 30.2594V15.083H40.2178V30.2593C40.2178 30.8536 40.6996 31.3354 41.2938 31.3354C41.8881 31.3354 42.3699 30.8536 42.3699 30.2593V14.0069C42.3698 13.4126 41.888 12.9309 41.2938 12.9309Z"/>
<path d="M49.0316 34.1018H47.0497V11.5036C47.0497 9.71004 45.5905 8.25085 43.797 8.25085H6.20314C4.40948 8.25085 2.9504 9.71004 2.9504 11.5036V34.1018H0.968459C0.433595 34.1018 0 34.5353 0 35.0702V36.9714C0 39.6059 2.14327 41.7492 4.77774 41.7492H45.2223C47.8567 41.7492 50 39.6059 50 36.9714V35.0702C50.0001 34.5353 49.5666 34.1018 49.0316 34.1018ZM5.10245 11.5036C5.10245 10.8968 5.5963 10.4029 6.20314 10.4029H43.7968C44.4038 10.4029 44.8975 10.8967 44.8975 11.5036V34.1018H30.3271C30.2585 34.0995 30.1877 34.1054 30.1173 34.119C29.6615 34.2067 29.3321 34.6057 29.3321 35.0699C29.3321 35.8873 28.667 36.5523 27.8498 36.5523H22.1504C21.333 36.5523 20.6681 35.8872 20.6681 35.0699C20.6681 34.5276 20.2188 34.09 19.6772 34.1016H5.10245V11.5036ZM48.0632 36.9714C48.0632 38.5379 46.7887 39.8122 45.2224 39.8122H4.77774C3.21133 39.8122 1.93692 38.5379 1.93692 36.9714V36.0387H18.8708C19.2895 37.4538 20.6013 38.4893 22.1503 38.4893H27.8497C29.3987 38.4893 30.7105 37.4537 31.1293 36.0387H48.0633V36.9714H48.0632Z"/>
<path d="M26.595 19.1855C26.1747 18.7653 25.4935 18.7653 25.0731 19.1855L18.3058 25.9531C17.8856 26.3733 17.8856 27.0547 18.3058 27.4749C18.516 27.6851 18.7913 27.79 19.0666 27.79C19.342 27.79 19.6173 27.6849 19.8275 27.4749L26.595 20.7074C27.0152 20.2872 27.0152 19.6058 26.595 19.1855Z"/>
<path d="M30.6064 23.1073C30.1861 22.6871 29.505 22.6871 29.0846 23.1073L26.3887 25.8032C25.9685 26.2234 25.9685 26.9047 26.3887 27.3251C26.5989 27.5352 26.8743 27.6402 27.1496 27.6402C27.4251 27.6402 27.7003 27.5352 27.9104 27.3251L30.6063 24.6292C31.0266 24.2089 31.0266 23.5276 30.6064 23.1073Z"/>
</symbol><symbol id="line-chart" viewBox="0 0 50 50">
<path d="M44.691 13.1524C41.7637 13.1524 39.3821 15.534 39.3821 18.4613C39.3821 19.529 39.7 20.5232 40.2446 21.3565L34.5089 27.0922C33.6755 26.5476 32.6813 26.2298 31.6136 26.2298C30.5073 26.2298 29.479 26.5704 28.6277 27.1517L22.833 21.3561C23.3774 20.5228 23.6951 19.5287 23.6951 18.4612C23.6951 15.5339 21.3135 13.1523 18.3862 13.1523C15.4589 13.1523 13.0773 15.5339 13.0773 18.4612C13.0773 19.5287 13.3951 20.5225 13.9393 21.3558L8.2035 27.0918C7.3703 26.5474 6.37626 26.2298 5.30888 26.2298C2.38154 26.2298 0 28.6114 0 31.5387C0 34.4661 2.38154 36.8476 5.30888 36.8476C8.23621 36.8476 10.6178 34.4661 10.6178 31.5387C10.6178 30.4711 10.2999 29.4768 9.75535 28.6434L15.491 22.9078C16.3244 23.4523 17.3186 23.7702 18.3863 23.7702C19.4539 23.7702 20.4481 23.4523 21.2814 22.9078L27.1082 28.7353C26.5998 29.5496 26.3048 30.5101 26.3048 31.5386C26.3048 34.466 28.6864 36.8475 31.6137 36.8475C34.541 36.8475 36.9226 34.466 36.9226 31.5386C36.9226 30.4712 36.6048 29.4772 36.0606 28.644L41.7965 22.9081C42.6298 23.4524 43.6238 23.7701 44.6911 23.7701C47.6185 23.7701 50 21.3886 50 18.4612C50 15.5338 47.6184 13.1524 44.691 13.1524ZM5.30888 34.6532C3.5915 34.6532 2.19433 33.256 2.19433 31.5387C2.19433 29.8214 3.5915 28.4242 5.30888 28.4242C7.02616 28.4242 8.42342 29.8214 8.42342 31.5387C8.42342 33.256 7.02626 34.6532 5.30888 34.6532ZM18.3863 21.5758C16.669 21.5758 15.2717 20.1786 15.2717 18.4612C15.2717 16.7439 16.6689 15.3467 18.3863 15.3467C20.1037 15.3467 21.5008 16.7438 21.5008 18.4612C21.5008 20.1786 20.1037 21.5758 18.3863 21.5758ZM31.6136 34.6532C29.8963 34.6532 28.4991 33.256 28.4991 31.5386C28.4991 29.8213 29.8962 28.4241 31.6136 28.4241C33.3309 28.4241 34.7282 29.8213 34.7282 31.5386C34.7281 33.256 33.3309 34.6532 31.6136 34.6532ZM44.691 21.5758C42.9737 21.5758 41.5765 20.1786 41.5765 18.4612C41.5765 16.7439 42.9736 15.3467 44.691 15.3467C46.4083 15.3467 47.8056 16.7438 47.8056 18.4612C47.8056 20.1786 46.4083 21.5758 44.691 21.5758Z"/>
<path d="M17.2627 26.6325C16.8342 26.2041 16.1396 26.2041 15.7111 26.6325L13.4793 28.8643C13.0508 29.2927 13.0508 29.9874 13.4794 30.416C13.6936 30.6302 13.9744 30.7373 14.2551 30.7373C14.5359 30.7373 14.8168 30.6301 15.0309 30.416L17.2627 28.1841C17.6914 27.7557 17.6914 27.0609 17.2627 26.6325Z"/>
<path d="M36.5197 19.6229C36.0911 19.1945 35.3966 19.1945 34.9679 19.623L32.7361 21.8548C32.3077 22.2832 32.3077 22.978 32.7361 23.4065C32.9504 23.6206 33.2312 23.7278 33.512 23.7278C33.7928 23.7278 34.0735 23.6205 34.2877 23.4064L36.5196 21.1745C36.9481 20.746 36.9481 20.0513 36.5197 19.6229Z"/>
</symbol><symbol id="logo"><path d="m29 0 28.532 20.73-10.898 33.54H11.366L.468 20.73 29 0Z" fill="#0093E6"/></symbol><symbol id="smartphone" viewBox="0 0 50 50">
<path d="M25.0005 40.8333C23.471 40.8333 22.2267 42.0775 22.2267 43.607C22.2267 45.1365 23.471 46.3807 25.0005 46.3807C26.53 46.3807 27.7742 45.1365 27.7742 43.607C27.7742 42.0775 26.5299 40.8333 25.0005 40.8333ZM25.0005 44.4598C24.5302 44.4598 24.1476 44.0772 24.1476 43.607C24.1476 43.1368 24.5302 42.7542 25.0005 42.7542C25.4707 42.7542 25.8533 43.1368 25.8533 43.607C25.8531 44.0772 25.4705 44.4598 25.0005 44.4598Z"/>
<path d="M29.5497 3.94989H24.6276C24.0676 3.94989 23.6137 4.4038 23.6137 4.96376C23.6137 5.52372 24.0677 5.97762 24.6276 5.97762H29.5497C30.1097 5.97762 30.5636 5.52372 30.5636 4.96376C30.5636 4.4038 30.1097 3.94989 29.5497 3.94989Z"/>
<path d="M21.5147 6.05309C22.1026 6.05309 22.5791 5.57656 22.5791 4.98873C22.5791 4.40091 22.1026 3.92438 21.5147 3.92438C20.9269 3.92438 20.4504 4.40091 20.4504 4.98873C20.4504 5.57656 20.9269 6.05309 21.5147 6.05309Z"/>
<path d="M36.826 0H13.1735C11.4082 0 9.97192 1.43623 9.97192 3.20156V46.7983C9.97192 48.5637 11.4082 49.9999 13.1735 49.9999H36.8259C38.5913 49.9999 40.0275 48.5637 40.0275 46.7983V3.20156C40.0276 1.43623 38.5914 0 36.826 0ZM37.8932 46.7984C37.8932 47.3869 37.4145 47.8656 36.826 47.8656H13.1735C12.585 47.8656 12.1063 47.3869 12.1063 46.7984V3.20156C12.1063 2.61309 12.585 2.13438 13.1735 2.13438H36.8259C37.4144 2.13438 37.8931 2.61309 37.8931 3.20156V46.7984H37.8932Z"/>
<path d="M26.7989 20.0396C26.382 19.623 25.7065 19.623 25.2895 20.0396L20.1632 25.166C19.7465 25.5827 19.7465 26.2585 20.1633 26.6753C20.3717 26.8837 20.6448 26.988 20.9178 26.988C21.1909 26.988 21.4641 26.8837 21.6724 26.6754L26.7988 21.5489C27.2156 21.1321 27.2156 20.4564 26.7989 20.0396Z"/>
<path d="M29.8369 23.0103C29.4201 22.5937 28.7445 22.5937 28.3275 23.0103L26.2853 25.0525C25.8687 25.4692 25.8687 26.145 26.2854 26.5619C26.4938 26.7702 26.767 26.8745 27.04 26.8745C27.3131 26.8745 27.5862 26.7702 27.7946 26.5619L29.8368 24.5197C30.2537 24.1029 30.2537 23.4271 29.8369 23.0103Z"/>
<path d="M34.7039 7.89954H15.2967C14.7662 7.89954 14.3362 8.32952 14.3362 8.85999V38.2814C14.3362 38.8118 14.7662 39.2418 15.2967 39.2418H34.7039C35.2344 39.2418 35.6644 38.8118 35.6644 38.2814V8.85999C35.6644 8.32961 35.2344 7.89954 34.7039 7.89954ZM33.7434 37.3209H16.257V9.82053H33.7434V37.3209Z"/>
</symbol><symbol id="twitter" viewBox="0 0 30 30">
<g clip-path="url(#clip0_3:18)">
<path d="M11.4152 27.405C6.40817 27.405 2.45081 26.5302 0.557497 25.0054L0.520647 24.9756L0.487231 24.9422C0.037478 24.4922 -0.109922 23.9019 0.0832543 23.3229L0.100878 23.2748C0.335253 22.6886 0.909518 22.294 1.53185 22.2904C2.81267 22.2682 3.93327 22.1155 4.9502 21.8191C3.32811 21.0647 2.20133 19.7585 1.53093 17.8679C1.30548 17.2783 1.50003 16.6246 2.01959 16.2348C2.14777 16.1385 2.29265 16.0657 2.446 16.017C1.54466 14.9765 0.878847 13.7925 0.505999 12.5402L0.494326 12.5013L0.486315 12.4615C0.359744 11.8282 0.64287 11.177 1.16175 10.8966C1.37941 10.7717 1.61585 10.7069 1.8532 10.7014C1.59731 10.1503 1.41123 9.58446 1.30091 9.01523C0.994662 7.43778 1.24735 5.85643 2.05164 4.31514L2.23772 3.94298C2.38672 3.64521 2.67145 3.43601 2.99967 3.38268C3.32788 3.32958 3.66434 3.43807 3.8994 3.67313L4.23837 4.01256C6.91629 6.82003 9.31497 8.15212 13.4621 9.06353C13.6472 7.47165 14.3355 5.99193 15.4458 4.82738C16.7671 3.44173 18.5316 2.66422 20.4141 2.63767H20.4265C21.8 2.63767 23.5038 3.42182 24.5342 3.9748C25.4182 3.68549 26.4832 3.23757 27.5882 2.76401C28.1053 2.5214 28.7427 2.6324 29.1492 3.0389C29.5477 3.43738 29.6582 3.99929 29.4467 4.5454C29.3664 4.76902 29.2753 4.98851 29.1739 5.2032C29.3252 5.27256 29.4637 5.36663 29.5806 5.48358C29.9342 5.83721 30.0816 6.39064 29.956 6.89373L29.9425 6.94156C29.5191 8.30616 28.7056 9.4176 27.6299 10.1152C27.4502 19.6827 20.2455 27.405 11.4152 27.405ZM2.24459 24.0255C4.02872 25.0349 7.42876 25.6456 11.4152 25.6456C15.2478 25.6456 18.8646 24.0001 21.5991 21.0123C24.3559 18 25.8741 13.9998 25.8741 9.74857V9.70073C25.8741 9.31575 26.0861 8.96442 26.4271 8.7836C27.119 8.41716 27.6793 7.793 28.0437 6.99489C27.6679 7.05417 27.2859 6.90334 27.0517 6.58886C26.7796 6.22333 26.7766 5.72963 27.0442 5.3609C27.1886 5.16178 27.3195 4.95464 27.4362 4.74041C26.482 5.14118 25.5759 5.50052 24.7892 5.73925C24.5033 5.82576 24.1847 5.79189 23.9236 5.64609C22.5231 4.86583 21.2187 4.39937 20.4322 4.39708C17.5302 4.44149 15.1707 6.92691 15.1707 9.94037C15.1707 10.2519 15.0324 10.5439 14.7919 10.7419C14.5511 10.9397 14.238 11.0189 13.9322 10.9584C9.15041 10.0164 6.31685 8.6037 3.37023 5.64266C2.94794 6.65454 2.83258 7.67375 3.02782 8.68015C3.2258 9.69959 3.75246 10.7211 4.55103 11.6341C4.85452 11.9806 4.89481 12.4764 4.65128 12.8675C4.40866 13.2573 3.94747 13.4395 3.50412 13.3207C3.15759 13.2278 2.83899 13.1058 2.53687 12.949C3.15233 14.2859 4.21091 15.5223 5.54163 16.4342C5.92729 16.6986 6.08843 17.1913 5.9337 17.6326C5.77875 18.0746 5.34593 18.3591 4.8781 18.3243C4.36838 18.2865 3.9168 18.1897 3.50115 18.0265C4.2473 19.5461 5.43955 20.3822 7.27632 20.7017C7.71372 20.7779 8.05429 21.1233 8.12387 21.5612C8.19368 21.999 7.97693 22.433 7.58486 22.641C6.0193 23.4709 4.30818 23.9164 2.24459 24.0255Z"/>
</g>

</symbol><symbol id="youtube" viewBox="0 0 30 30">
<g clip-path="url(#clip0_3:26)">
<path d="M19.6176 13.652L12.9899 10.0256C12.6088 9.81707 12.1583 9.82485 11.7848 10.0462C11.411 10.2677 11.1881 10.6591 11.1881 11.0935V18.2841C11.1881 18.7164 11.4097 19.1071 11.7809 19.3289C11.9748 19.4447 12.1897 19.5028 12.4051 19.5028C12.6024 19.5028 12.8001 19.4541 12.9821 19.3561L19.61 15.7922C20.0035 15.5805 20.249 15.1715 20.2509 14.7245C20.2525 14.2775 20.0099 13.8667 19.6176 13.652ZM12.9461 17.3795V12.0054L17.8996 14.7158L12.9461 17.3795Z"/>
<path d="M29.7792 8.99572L29.7779 8.98199C29.7525 8.74052 29.4995 6.5927 28.4554 5.50025C27.2485 4.21531 25.8803 4.05922 25.2222 3.98437C25.1677 3.97819 25.1179 3.97247 25.0732 3.96652L25.0208 3.96103C21.0548 3.67264 15.0652 3.63327 15.0052 3.63304L14.9999 3.63281L14.9947 3.63304C14.9347 3.63327 8.94512 3.67264 4.94337 3.96103L4.8905 3.96652C4.84793 3.97224 4.80101 3.97751 4.74997 3.98346C4.09949 4.05853 2.74588 4.21486 1.53556 5.54626C0.541075 6.62703 0.2536 8.72885 0.224074 8.96505L0.220641 8.99572C0.211715 9.0962 0 11.4882 0 13.8897V16.1345C0 18.5359 0.211715 20.928 0.220641 21.0287L0.222243 21.0438C0.247649 21.2814 0.500334 23.3898 1.53968 24.4827C2.67447 25.7246 4.10933 25.889 4.88111 25.9773C5.00311 25.9913 5.10816 26.0032 5.1798 26.0158L5.24916 26.0254C7.53911 26.2433 14.7189 26.3506 15.0233 26.355L15.0324 26.3552L15.0416 26.355C15.1016 26.3547 21.0909 26.3154 25.057 26.027L25.1094 26.0215C25.1595 26.0148 25.2158 26.0089 25.2776 26.0025C25.9244 25.9338 27.2707 25.7912 28.4643 24.4779C29.4588 23.3969 29.7465 21.2951 29.7758 21.0591L29.7792 21.0284C29.7882 20.9277 30.0001 18.5359 30.0001 16.1345V13.8897C29.9999 11.4882 29.7882 9.09643 29.7792 8.99572ZM28.2418 16.1345C28.2418 18.3572 28.0478 20.6462 28.0294 20.8563C27.9548 21.4352 27.6516 22.765 27.167 23.2916C26.42 24.1135 25.6525 24.195 25.0922 24.2543C25.0245 24.2614 24.9618 24.2683 24.905 24.2754C21.0689 24.5528 15.3055 24.5953 15.04 24.5969C14.7422 24.5926 7.66751 24.4843 5.44737 24.2781C5.33361 24.2596 5.2107 24.2454 5.08116 24.2307C4.42404 24.1554 3.52454 24.0524 2.83286 23.2916L2.81661 23.2742C2.34054 22.7782 2.04597 21.5347 1.97112 20.8632C1.95716 20.7044 1.75803 18.3883 1.75803 16.1345V13.8897C1.75803 11.6695 1.95167 9.38299 1.97044 9.16853C2.05947 8.48669 2.36846 7.23746 2.83286 6.73255C3.60281 5.88569 4.41466 5.79185 4.95161 5.72982C5.00288 5.72387 5.05072 5.71838 5.09489 5.71265C8.98678 5.43388 14.7917 5.39245 14.9999 5.39085C15.2082 5.39222 21.011 5.43388 24.8684 5.71265C24.9158 5.7186 24.9675 5.72456 25.0231 5.73096C25.5754 5.79391 26.4101 5.88912 27.1762 6.70623L27.1833 6.71378C27.6593 7.20976 27.9539 8.47502 28.0288 9.16006C28.042 9.30997 28.2418 11.6311 28.2418 13.8897V16.1345Z"/>
</g>

</symbol></svg>